<svg width="760" height="760" viewBox="0 0 760 760" fill="none" xmlns="http://www.w3.org/2000/svg">
  <rect width="760" height="760" fill="#116FF9"/>
  <path d="M386.5 183C497.785 183 588 271.2 588 380C588 419.877 575.879 456.986 555.046 488H17.6816C16.5766 481.834 16 475.484 16 469C16 413.617 58.0774 368.061 112.008 362.558C108.771 353.989 107 344.701 107 335C107 291.922 141.922 257 185 257C198.365 257 210.945 260.362 221.94 266.286C258.437 215.895 318.539 183 386.5 183Z" fill="#F6821F"/>
  <path fill-rule="evenodd" clip-rule="evenodd" d="M92.6568 91.0069C88.7796 262.923 101.55 381.119 143.869 469.459C186.188 557.799 258.092 616.353 372.665 668.892C485.877 616.354 556.929 557.802 598.746 469.461C640.564 381.12 653.181 262.923 649.35 91.0069H92.6568ZM539.796 432.933C570.479 365.533 581.347 278.379 582.419 153.939L582.422 153.432H377.661V593.786L378.405 593.364C458.602 547.962 509.101 500.36 539.796 432.933Z" fill="white"/>
  <path d="M604.465 305C680.976 305 743 367.233 743 444C743 459.378 740.509 474.172 735.913 488H379V423.553C391.721 397.751 418.287 380 449 380C459.483 380 469.482 382.068 478.613 385.818C500.559 338.11 548.658 305 604.465 305Z" fill="#FD9C33"/>
</svg>
