<svg width="727" height="580" viewBox="0 0 727 580" fill="none" xmlns="http://www.w3.org/2000/svg">
  <path d="M370.5 93C481.785 93 572 181.2 572 290C572 329.877 559.879 366.986 539.046 398H1.68164C0.576599 391.834 0 385.484 0 379C0 323.617 42.0774 278.061 96.0078 272.558C92.7712 263.989 91 254.701 91 245C91 201.922 125.922 167 169 167C182.365 167 194.945 170.362 205.94 176.286C242.437 125.895 302.539 93 370.5 93Z" fill="#F6821F"/>
  <path fill-rule="evenodd" clip-rule="evenodd" d="M76.6568 1.00686C72.7796 172.923 85.5495 291.119 127.869 379.459C170.188 467.799 242.092 526.353 356.665 578.892C469.877 526.354 540.929 467.802 582.746 379.461C624.564 291.12 637.181 172.923 633.35 1.00686H76.6568ZM523.796 342.933C554.479 275.533 565.347 188.379 566.419 63.9394L566.422 63.432H361.661V503.786L362.405 503.364C442.602 457.962 493.101 410.36 523.796 342.933Z" fill="#116FF9"/>
  <path d="M588.465 215C664.976 215 727 277.233 727 354C727 369.378 724.509 384.172 719.913 398H363V333.553C375.721 307.751 402.287 290 433 290C443.483 290 453.482 292.068 462.613 295.818C484.559 248.11 532.658 215 588.465 215Z" fill="#FD9C33"/>
</svg>
